<svg xmlns="http://www.w3.org/2000/svg" viewBox="0 0 32 32" fill="none">
  <!-- warm cream backdrop circle for contrast against dark browser chrome -->
  <circle cx="16" cy="16" r="16" fill="#fef3e4"/>
  <!-- outer flame — ember orange -->
  <path d="M16 4 C 12.5 7.5, 9.5 10.5, 9.5 16 C 9.5 21.5, 12.5 24.5, 16 24.5 C 19.5 24.5, 22.5 21.5, 22.5 16.5 C 22.5 13.5, 20.5 11.5, 18.5 10 C 18.5 14, 16 15.5, 16 15.5 C 16 12, 19.5 10, 16 4 Z"
        fill="#ff6b35"/>
  <!-- inner hot-core — ember-deep red -->
  <path d="M16 11 C 14 13, 12.5 15, 12.5 18 C 12.5 21, 14 22.5, 16 22.5 C 18 22.5, 19.5 21, 19.5 18.5 C 19.5 16.5, 18.5 15.5, 17.5 14.5 C 17.5 16.5, 16 17.5, 16 17.5 C 16 15.5, 17.5 14, 16 11 Z"
        fill="#e63946"/>
  <!-- bright spark highlight -->
  <ellipse cx="14.5" cy="20" rx="1.3" ry="2" fill="#ffb627" opacity="0.85"/>
</svg>
