<svg xmlns="http://www.w3.org/2000/svg" viewBox="0 0 32 32">
  <rect width="32" height="32" rx="7" fill="#fef3e4"/>
  <ellipse cx="16" cy="29" rx="7" ry="0.9" fill="#2b1810" opacity="0.13"/>
  <path d="M12 4 C 11 6, 10 9, 9 12 C 8 14, 7.5 17, 7.5 19 C 7 24, 11 28.5, 16 28.5 C 21 28.5, 25 24, 25 19 C 25 16, 24 13, 22.5 10 C 21.5 7.5, 20 5.5, 19.5 4.5 C 19 6, 18.5 7, 18 7.5 C 17.5 8, 17 7.8, 16.5 7.5 C 16 7.2, 15.5 6.5, 15 5 C 14.5 3.5, 14 2.5, 13.5 2.5 C 13 2.5, 12.5 3, 12 4 Z" fill="#e63946" stroke="#2b1810" stroke-width="1.2" stroke-linejoin="round"/>
  <path d="M14.5 9 C 12.5 11, 11 14, 11 17.5 C 11 24, 13 28.5, 16 28.5 C 19 28.5, 21.5 25, 21.5 20 C 21.5 16.5, 20 14, 18.5 12.5 C 18 13.5, 17 13.5, 16 13 C 15.5 11.5, 15 10, 14.5 9 Z" fill="#ff6b35"/>
  <path d="M15 17 C 13.5 18.5, 13 20.5, 13.5 22.5 C 14 24, 15 24.5, 16 24.5 C 17.5 24.5, 18.5 24, 18.5 22.5 C 19 20.5, 18 19, 16.5 18 C 16 17.5, 15.5 17.5, 15 17 Z" fill="#ffb627"/>
  <ellipse cx="15.5" cy="22" rx="0.8" ry="1.3" fill="#fff5db" opacity="0.7"/>
</svg>
